<svg width="79" height="47" viewBox="0 0 79 47" fill="none" xmlns="http://www.w3.org/2000/svg">
<path d="M11.6901 7.402V1.146H22.1621V26H15.1921V7.402H11.6901ZM25.5526 13.216C25.5526 9.31733 26.3459 6.246 27.9326 4.002C29.5192 1.758 32.0126 0.635998 35.4126 0.635998C38.8126 0.635998 41.3059 1.758 42.8926 4.002C44.5019 6.246 45.3066 9.31733 45.3066 13.216C45.3066 17.16 44.5132 20.254 42.9266 22.498C41.3399 24.742 38.8352 25.864 35.4126 25.864C31.9899 25.864 29.4852 24.742 27.8986 22.498C26.3346 20.254 25.5526 17.16 25.5526 13.216ZM38.7106 13.216C38.7106 11.176 38.4952 9.62333 38.0646 8.558C37.6339 7.47 36.7499 6.926 35.4126 6.926C34.0752 6.926 33.1912 7.47 32.7606 8.558C32.3299 9.62333 32.1146 11.176 32.1146 13.216C32.1146 15.3013 32.3186 16.888 32.7266 17.976C33.1572 19.0413 34.0526 19.574 35.4126 19.574C36.7726 19.574 37.6566 19.0413 38.0646 17.976C38.4952 16.888 38.7106 15.3013 38.7106 13.216ZM60.3763 26L56.9423 21.206L54.2223 26H46.9123L53.2703 16.106L46.6403 6.926H54.1203L57.5543 11.72L60.3083 6.926H67.6183L61.1243 16.65L67.8563 26H60.3763Z" fill="black"/>
<path d="M0.942914 38.463C0.942914 37.579 1.14658 36.786 1.55391 36.084C1.96991 35.382 2.52891 34.836 3.23091 34.446C3.94158 34.0473 4.71725 33.848 5.55791 33.848C6.51991 33.848 7.37358 34.0863 8.11891 34.563C8.87291 35.031 9.41891 35.6983 9.75691 36.565H7.97591C7.74191 36.0883 7.41691 35.733 7.00091 35.499C6.58491 35.265 6.10391 35.148 5.55791 35.148C4.95991 35.148 4.42691 35.2823 3.95891 35.551C3.49091 35.8197 3.12258 36.2053 2.85391 36.708C2.59391 37.2107 2.46391 37.7957 2.46391 38.463C2.46391 39.1303 2.59391 39.7153 2.85391 40.218C3.12258 40.7207 3.49091 41.1107 3.95891 41.388C4.42691 41.6567 4.95991 41.791 5.55791 41.791C6.10391 41.791 6.58491 41.674 7.00091 41.44C7.41691 41.206 7.74191 40.8507 7.97591 40.374H9.75691C9.41891 41.2407 8.87291 41.908 8.11891 42.376C7.37358 42.844 6.51991 43.078 5.55791 43.078C4.70858 43.078 3.93291 42.883 3.23091 42.493C2.52891 42.0943 1.96991 41.544 1.55391 40.842C1.14658 40.14 0.942914 39.347 0.942914 38.463ZM14.5986 43.117C13.9226 43.117 13.3116 42.9653 12.7656 42.662C12.2196 42.35 11.7906 41.9167 11.4786 41.362C11.1666 40.7987 11.0106 40.1487 11.0106 39.412C11.0106 38.684 11.1709 38.0383 11.4916 37.475C11.8123 36.9117 12.2499 36.4783 12.8046 36.175C13.3593 35.8717 13.9789 35.72 14.6636 35.72C15.3483 35.72 15.9679 35.8717 16.5226 36.175C17.0773 36.4783 17.5149 36.9117 17.8356 37.475C18.1563 38.0383 18.3166 38.684 18.3166 39.412C18.3166 40.14 18.1519 40.7857 17.8226 41.349C17.4933 41.9123 17.0426 42.35 16.4706 42.662C15.9073 42.9653 15.2833 43.117 14.5986 43.117ZM14.5986 41.83C14.9799 41.83 15.3353 41.739 15.6646 41.557C16.0026 41.375 16.2756 41.102 16.4836 40.738C16.6916 40.374 16.7956 39.932 16.7956 39.412C16.7956 38.892 16.6959 38.4543 16.4966 38.099C16.2973 37.735 16.0329 37.462 15.7036 37.28C15.3743 37.098 15.0189 37.007 14.6376 37.007C14.2563 37.007 13.9009 37.098 13.5716 37.28C13.2509 37.462 12.9953 37.735 12.8046 38.099C12.6139 38.4543 12.5186 38.892 12.5186 39.412C12.5186 40.1833 12.7136 40.7813 13.1036 41.206C13.5023 41.622 14.0006 41.83 14.5986 41.83ZM28.4526 35.72C29.016 35.72 29.5186 35.837 29.9606 36.071C30.4113 36.305 30.7623 36.6517 31.0136 37.111C31.2736 37.5703 31.4036 38.125 31.4036 38.775V43H29.9346V38.996C29.9346 38.3547 29.7743 37.865 29.4536 37.527C29.133 37.1803 28.6953 37.007 28.1406 37.007C27.586 37.007 27.144 37.1803 26.8146 37.527C26.494 37.865 26.3336 38.3547 26.3336 38.996V43H24.8646V38.996C24.8646 38.3547 24.7043 37.865 24.3836 37.527C24.063 37.1803 23.6253 37.007 23.0706 37.007C22.516 37.007 22.074 37.1803 21.7446 37.527C21.424 37.865 21.2636 38.3547 21.2636 38.996V43H19.7816V35.837H21.2636V36.656C21.5063 36.3613 21.814 36.1317 22.1866 35.967C22.5593 35.8023 22.958 35.72 23.3826 35.72C23.9546 35.72 24.466 35.8413 24.9166 36.084C25.3673 36.3267 25.714 36.6777 25.9566 37.137C26.1733 36.7037 26.5113 36.3613 26.9706 36.11C27.43 35.85 27.924 35.72 28.4526 35.72ZM41.9605 35.72C42.5238 35.72 43.0265 35.837 43.4685 36.071C43.9191 36.305 44.2701 36.6517 44.5215 37.111C44.7815 37.5703 44.9115 38.125 44.9115 38.775V43H43.4425V38.996C43.4425 38.3547 43.2821 37.865 42.9615 37.527C42.6408 37.1803 42.2031 37.007 41.6485 37.007C41.0938 37.007 40.6518 37.1803 40.3225 37.527C40.0018 37.865 39.8415 38.3547 39.8415 38.996V43H38.3725V38.996C38.3725 38.3547 38.2121 37.865 37.8915 37.527C37.5708 37.1803 37.1331 37.007 36.5785 37.007C36.0238 37.007 35.5818 37.1803 35.2525 37.527C34.9318 37.865 34.7715 38.3547 34.7715 38.996V43H33.2895V35.837H34.7715V36.656C35.0141 36.3613 35.3218 36.1317 35.6945 35.967C36.0671 35.8023 36.4658 35.72 36.8905 35.72C37.4625 35.72 37.9738 35.8413 38.4245 36.084C38.8751 36.3267 39.2218 36.6777 39.4645 37.137C39.6811 36.7037 40.0191 36.3613 40.4785 36.11C40.9378 35.85 41.4318 35.72 41.9605 35.72ZM53.2843 35.837V43H51.8023V42.155C51.5683 42.4497 51.2606 42.6837 50.8793 42.857C50.5066 43.0217 50.1079 43.104 49.6833 43.104C49.1199 43.104 48.6129 42.987 48.1623 42.753C47.7203 42.519 47.3693 42.1723 47.1093 41.713C46.8579 41.2537 46.7323 40.699 46.7323 40.049V35.837H48.2013V39.828C48.2013 40.4693 48.3616 40.9633 48.6823 41.31C49.0029 41.648 49.4406 41.817 49.9953 41.817C50.5499 41.817 50.9876 41.648 51.3083 41.31C51.6376 40.9633 51.8023 40.4693 51.8023 39.828V35.837H53.2843ZM58.8536 35.72C59.417 35.72 59.9196 35.837 60.3616 36.071C60.8123 36.305 61.1633 36.6517 61.4146 37.111C61.666 37.5703 61.7916 38.125 61.7916 38.775V43H60.3226V38.996C60.3226 38.3547 60.1623 37.865 59.8416 37.527C59.521 37.1803 59.0833 37.007 58.5286 37.007C57.974 37.007 57.532 37.1803 57.2026 37.527C56.882 37.865 56.7216 38.3547 56.7216 38.996V43H55.2396V35.837H56.7216V36.656C56.9643 36.3613 57.272 36.1317 57.6446 35.967C58.026 35.8023 58.429 35.72 58.8536 35.72ZM64.436 34.888C64.1674 34.888 63.942 34.797 63.76 34.615C63.578 34.433 63.487 34.2077 63.487 33.939C63.487 33.6703 63.578 33.445 63.76 33.263C63.942 33.081 64.1674 32.99 64.436 32.99C64.696 32.99 64.917 33.081 65.099 33.263C65.281 33.445 65.372 33.6703 65.372 33.939C65.372 34.2077 65.281 34.433 65.099 34.615C64.917 34.797 64.696 34.888 64.436 34.888ZM65.164 35.837V43H63.682V35.837H65.164ZM68.8388 37.046V41.011C68.8388 41.2797 68.8994 41.4747 69.0208 41.596C69.1508 41.7087 69.3674 41.765 69.6708 41.765H70.5808V43H69.4108C68.7434 43 68.2321 42.844 67.8768 42.532C67.5214 42.22 67.3438 41.713 67.3438 41.011V37.046H66.4988V35.837H67.3438V34.056H68.8388V35.837H70.5808V37.046H68.8388ZM78.3947 35.837L74.0007 46.367H72.4667L73.9227 42.883L71.1017 35.837H72.7527L74.7677 41.297L76.8607 35.837H78.3947Z" fill="black"/>
</svg>
