<svg width="24" height="24" viewBox="0 0 24 24" fill="none" xmlns="http://www.w3.org/2000/svg">
<path d="M13 16.703C13 15.785 13 15.327 13.203 14.929C13.407 14.532 13.786 14.25 14.544 13.687L15.044 13.315C16.224 12.438 16.814 12 17.5 12C18.186 12 18.776 12.438 19.956 13.315L20.456 13.687C21.214 14.25 21.593 14.532 21.796 14.929C21.999 15.326 22 15.785 22 16.703V18.178C22 19.98 22 20.881 21.414 21.44C20.828 21.999 19.886 22 18 22H13V16.703Z" stroke="white" stroke-width="1.5" stroke-linecap="round" stroke-linejoin="round"/>
<path d="M18 12V5C18 2.518 17.482 2 15 2H11C8.518 2 8 2.518 8 5V22" stroke="white" stroke-width="1.5" stroke-linecap="round" stroke-linejoin="round"/>
<path d="M3.5 16C4.32843 16 5 15.1046 5 14C5 12.8954 4.32843 12 3.5 12C2.67157 12 2 12.8954 2 14C2 15.1046 2.67157 16 3.5 16Z" stroke="white" stroke-width="1.5" stroke-linecap="round" stroke-linejoin="round"/>
<path d="M3.5 16V22M2 22H20M12 6H14M12 9H14M17.5 22V20" stroke="white" stroke-width="1.5" stroke-linecap="round" stroke-linejoin="round"/>
</svg>
