<svg width="23" height="24" viewBox="0 0 23 24" fill="none" xmlns="http://www.w3.org/2000/svg">
<path fill-rule="evenodd" clip-rule="evenodd" d="M10.0195 1.75955C10.93 1.18952 12.0674 1.18952 12.9779 1.75955L20.6445 6.55955C21.5105 7.10172 22.0404 8.07824 22.0404 9.13203V19.9997C22.0404 21.6565 20.7532 22.9997 19.1654 22.9997H3.83203C2.24421 22.9997 0.957031 21.6565 0.957031 19.9997V9.13203C0.957031 8.07824 1.48689 7.10172 2.35286 6.55955L10.0195 1.75955ZM11.9918 3.47454C11.6883 3.28453 11.3091 3.28453 11.0056 3.47454L3.33897 8.27454C3.05032 8.45526 2.8737 8.78077 2.8737 9.13203V19.9997C2.8737 20.5519 3.30276 20.9997 3.83203 20.9997H19.1654C19.6946 20.9997 20.1237 20.5519 20.1237 19.9997V9.13203C20.1237 8.78077 19.9471 8.45526 19.6584 8.27454L11.9918 3.47454ZM5.92193 11.4262C6.22545 10.9737 6.823 10.8637 7.2566 11.1804L11.4987 14.279L15.7408 11.1804C16.1744 10.8637 16.7719 10.9737 17.0755 11.4262C17.379 11.8786 17.2735 12.5022 16.8399 12.8189L12.0483 16.3189C11.7183 16.5599 11.2791 16.5599 10.9491 16.3189L6.15746 12.8189C5.72387 12.5022 5.61842 11.8786 5.92193 11.4262Z" fill="black"/>
</svg>
