<svg width="20" height="20" viewBox="0 0 20 20" fill="none" xmlns="http://www.w3.org/2000/svg">
<g clip-path="url(#clip0_1495_1579)">
<path d="M11.3277 4.69387V2.14244C11.3277 1.76356 11.1772 1.4002 10.9093 1.13229C10.6414 0.864377 10.278 0.713867 9.89913 0.713867H2.14342C1.76453 0.713867 1.40117 0.864377 1.13326 1.13229C0.865354 1.4002 0.714844 1.76356 0.714844 2.14244V9.89815C0.714844 10.277 0.865354 10.6404 1.13326 10.9083C1.40117 11.1762 1.76453 11.3267 2.14342 11.3267H4.69484M10.102 8.67244H17.8577C17.8577 8.67244 19.2863 8.67244 19.2863 10.101V17.8567C19.2863 17.8567 19.2863 19.2853 17.8577 19.2853H10.102C10.102 19.2853 8.67342 19.2853 8.67342 17.8567V10.101C8.67342 10.101 8.67342 8.67244 10.102 8.67244Z" stroke="white" stroke-linecap="round" stroke-linejoin="round"/>
<path d="M4.60324 5.00628C4.50852 5.00628 4.41768 4.96865 4.3507 4.90167C4.28372 4.8347 4.24609 4.74386 4.24609 4.64914C4.24609 4.55441 4.28372 4.46357 4.3507 4.3966C4.41768 4.32962 4.50852 4.29199 4.60324 4.29199M12.3647 15.9506C12.2699 15.9506 12.1791 15.9129 12.1121 15.846C12.0451 15.779 12.0075 15.6881 12.0075 15.5934C12.0075 15.4987 12.0451 15.4079 12.1121 15.3409C12.1791 15.2739 12.2699 15.2363 12.3647 15.2363C12.4594 15.2363 12.5502 15.2739 12.6172 15.3409C12.6842 15.4079 12.7218 15.4987 12.7218 15.5934C12.7218 15.6881 12.6842 15.779 12.6172 15.846C12.5502 15.9129 12.4594 15.9506 12.3647 15.9506Z" stroke="white" stroke-linecap="round" stroke-linejoin="round"/>
<path d="M4.60156 5.00628C4.69628 5.00628 4.78712 4.96865 4.8541 4.90167C4.92108 4.8347 4.95871 4.74386 4.95871 4.64914C4.95871 4.55441 4.92108 4.46357 4.8541 4.3966C4.78712 4.32962 4.69628 4.29199 4.60156 4.29199M15.6001 13.0063C15.5054 13.0063 15.4146 12.9687 15.3476 12.9017C15.2806 12.8347 15.243 12.7439 15.243 12.6491C15.243 12.5544 15.2806 12.4636 15.3476 12.3966C15.4146 12.3296 15.5054 12.292 15.6001 12.292" stroke="white" stroke-linecap="round" stroke-linejoin="round"/>
<path d="M15.5977 13.0063C15.6924 13.0063 15.7832 12.9687 15.8502 12.9017C15.9172 12.8347 15.9548 12.7439 15.9548 12.6491C15.9548 12.5544 15.9172 12.4636 15.8502 12.3966C15.7832 12.3296 15.6924 12.292 15.5977 12.292" stroke="white" stroke-linecap="round" stroke-linejoin="round"/>
</g>
<defs>
<clipPath id="clip0_1495_1579">
<rect width="20" height="20" fill="white"/>
</clipPath>
</defs>
</svg>
